<?xml version="1.0" encoding="UTF-8"?> <svg xmlns="http://www.w3.org/2000/svg" id="Layer_1" viewBox="0 0 249.48 249.48"><defs><style>.cls-1{fill:#f8c2f9;}.cls-2{fill:#b913bc;}.cls-3{fill:#db00c6;stroke:#170033;stroke-miterlimit:10;stroke-width:7px;}.cls-4{fill:#170033;}.cls-5{fill:#fff;}</style></defs><rect class="cls-2" x="29.04" y="29.04" width="216.94" height="216.94" rx="40.09" ry="40.09"></rect><path class="cls-4" d="M205.9,249.48H69.13c-24.03,0-43.59-19.55-43.59-43.59V69.13c0-24.03,19.55-43.59,43.59-43.59h136.77c24.03,0,43.59,19.55,43.59,43.59v136.77c0,24.03-19.55,43.59-43.59,43.59ZM69.13,32.54c-20.17,0-36.59,16.41-36.59,36.59v136.77c0,20.17,16.41,36.59,36.59,36.59h136.77c20.17,0,36.59-16.41,36.59-36.59V69.13c0-20.17-16.41-36.59-36.59-36.59H69.13Z"></path><rect class="cls-5" x="3.5" y="3.5" width="216.94" height="216.94" rx="40.09" ry="40.09"></rect><path class="cls-4" d="M180.35,223.94H43.59c-24.03,0-43.59-19.55-43.59-43.59V43.59C0,19.55,19.55,0,43.59,0h136.77c24.03,0,43.59,19.55,43.59,43.59v136.77c0,24.03-19.55,43.59-43.59,43.59ZM43.59,7C23.41,7,7,23.41,7,43.59v136.77c0,20.17,16.41,36.59,36.59,36.59h136.77c20.17,0,36.59-16.41,36.59-36.59V43.59c0-20.17-16.41-36.59-36.59-36.59H43.59Z"></path><line class="cls-4" x1="15.95" y1="209.35" x2="42.13" y2="235.54"></line><rect class="cls-4" x="25.54" y="203.93" width="7" height="37.03" transform="translate(-148.79 85.69) rotate(-45)"></rect><line class="cls-4" x1="209.43" y1="15.87" x2="235.61" y2="42.06"></line><rect class="cls-4" x="219.02" y="10.45" width="7" height="37.03" transform="translate(44.69 165.83) rotate(-45)"></rect><line class="cls-3" x1="3.5" y1="50.72" x2="220.44" y2="50.72"></line><path class="cls-1" d="M220.44,43.58v7.13H3.5v-7.13C3.5,21.45,21.45,3.5,43.59,3.5h136.76c22.14,0,40.09,17.95,40.09,40.08Z"></path><path class="cls-4" d="M223.94,54.21H0v-10.63C0,19.55,19.56,0,43.59,0h136.76C204.39,0,223.94,19.55,223.94,43.58v10.63ZM7,47.21h209.94v-3.63c0-20.17-16.41-36.58-36.59-36.58H43.59C23.42,7,7,23.41,7,43.58v3.63Z"></path><circle class="cls-4" cx="42.49" cy="27.11" r="9.48"></circle><circle class="cls-4" cx="181.45" cy="27.11" r="9.48"></circle><rect class="cls-4" x="166.89" y="73.71" width="24.04" height="18.7"></rect><rect class="cls-4" x="166.89" y="99.49" width="24.04" height="18.7"></rect><rect class="cls-4" x="166.89" y="125.26" width="24.04" height="18.7"></rect><rect class="cls-4" x="166.89" y="151.03" width="24.04" height="18.7"></rect><rect class="cls-4" x="133.42" y="73.71" width="24.04" height="18.7"></rect><rect class="cls-4" x="133.42" y="99.49" width="24.04" height="18.7"></rect><rect class="cls-4" x="133.42" y="125.26" width="24.04" height="18.7"></rect><rect class="cls-4" x="133.42" y="151.03" width="24.04" height="18.7"></rect><rect class="cls-4" x="99.95" y="99.49" width="24.04" height="18.7"></rect><rect class="cls-4" x="99.95" y="125.26" width="24.04" height="18.7"></rect><rect class="cls-4" x="99.95" y="151.03" width="24.04" height="18.7"></rect><rect class="cls-4" x="66.48" y="99.49" width="24.04" height="18.7"></rect><rect class="cls-4" x="66.48" y="125.26" width="24.04" height="18.7"></rect><rect class="cls-4" x="66.48" y="151.03" width="24.04" height="18.7"></rect><rect class="cls-4" x="66.48" y="176.8" width="24.04" height="18.7"></rect><rect class="cls-4" x="33.01" y="99.49" width="24.04" height="18.7"></rect><rect class="cls-4" x="33.01" y="125.26" width="24.04" height="18.7"></rect><rect class="cls-4" x="33.01" y="151.03" width="24.04" height="18.7"></rect><rect class="cls-4" x="33.01" y="176.8" width="24.04" height="18.7"></rect><polygon class="cls-4" points="25.66 219.61 186.25 223.55 58.05 244.01 37.46 236.64 25.66 219.61"></polygon></svg> 