<?xml version="1.0" encoding="UTF-8"?> <svg xmlns="http://www.w3.org/2000/svg" id="Layer_1" viewBox="0 0 280.24 280.24"><defs><style>.cls-1{fill:#170033;}.cls-2{fill:#fff;}.cls-3{fill:#ff8f07;}.cls-4{fill:#ffddb4;}</style></defs><rect class="cls-3" x="32.67" y="32.67" width="244.07" height="244.07" rx="45.1" ry="45.1"></rect><path class="cls-1" d="M231.64,280.24H77.77c-26.8,0-48.6-21.8-48.6-48.6V77.77c0-26.8,21.8-48.6,48.6-48.6h153.87c26.8,0,48.6,21.8,48.6,48.6v153.87c0,26.8-21.8,48.6-48.6,48.6ZM77.77,36.17c-22.94,0-41.6,18.66-41.6,41.6v153.87c0,22.94,18.66,41.6,41.6,41.6h153.87c22.94,0,41.6-18.66,41.6-41.6V77.77c0-22.94-18.66-41.6-41.6-41.6H77.77Z"></path><rect class="cls-2" x="3.94" y="3.94" width="244.07" height="244.07" rx="45.1" ry="45.1"></rect><path class="cls-1" d="M202.91,251.94H49.04c-27.04,0-49.04-22-49.04-49.04V49.04C0,22,22,0,49.04,0h153.87c27.04,0,49.04,22,49.04,49.04v153.87c0,27.04-22,49.04-49.04,49.04ZM49.04,7.88C26.34,7.88,7.88,26.34,7.88,49.04v153.87c0,22.7,18.47,41.16,41.16,41.16h153.87c22.7,0,41.16-18.47,41.16-41.16V49.04c0-22.7-18.47-41.16-41.16-41.16H49.04Z"></path><line class="cls-1" x1="18.43" y1="235.95" x2="48.7" y2="264.57"></line><rect class="cls-1" x="29.62" y="229.43" width="7.88" height="41.66" transform="translate(-171.33 102.7) rotate(-46.6)"></rect><line class="cls-1" x1="232.06" y1="14.75" x2="261.52" y2="44.21"></line><rect class="cls-1" x="242.85" y="8.65" width="7.88" height="41.66" transform="translate(51.44 183.14) rotate(-45)"></rect><polygon class="cls-1" points="30.43 246.29 211.1 250.72 66.86 273.75 43.7 265.45 30.43 246.29"></polygon><rect class="cls-4" x="55.92" y="165.92" width="34.58" height="46.69"></rect><path class="cls-1" d="M94.44,216.55h-42.45v-54.57h42.45v54.57ZM59.86,208.68h26.7v-38.82h-26.7v38.82Z"></path><rect class="cls-4" x="90.5" y="147.13" width="34.58" height="65.48"></rect><path class="cls-1" d="M129.01,216.55h-42.45v-73.36h42.45v73.36ZM94.44,208.68h26.7v-57.61h-26.7v57.61Z"></path><rect class="cls-4" x="125.08" y="114.39" width="34.58" height="98.23"></rect><path class="cls-1" d="M163.59,216.55h-42.45v-106.1h42.45v106.1ZM129.01,208.68h26.7v-90.35h-26.7v90.35Z"></path><polygon class="cls-2" points="176.94 44.56 139.86 81.65 159.65 81.65 159.65 212.62 194.23 212.62 194.23 81.65 214.02 81.65 176.94 44.56"></polygon><path class="cls-1" d="M198.17,216.55h-42.45V85.58h-25.36l46.59-46.59,46.59,46.59h-25.36v130.97ZM163.59,208.68h26.7V77.71h14.22l-27.58-27.57-27.58,27.57h14.22v130.97Z"></path></svg> 