<?xml version="1.0" encoding="UTF-8"?> <svg xmlns="http://www.w3.org/2000/svg" id="Layer_1" viewBox="0 0 249.48 249.48"><defs><style>.cls-1{fill:#008d97;}.cls-2{fill:#170033;}.cls-3{fill:#fff;}.cls-4{fill:#abf9ff;}</style></defs><rect class="cls-1" x="29.04" y="29.04" width="216.94" height="216.94" rx="40.09" ry="40.09"></rect><path class="cls-2" d="M205.9,249.48H69.13c-24.03,0-43.59-19.55-43.59-43.59V69.13c0-24.03,19.55-43.59,43.59-43.59h136.77c24.03,0,43.59,19.55,43.59,43.59v136.77c0,24.03-19.55,43.59-43.59,43.59ZM69.13,32.54c-20.17,0-36.59,16.41-36.59,36.59v136.77c0,20.17,16.41,36.59,36.59,36.59h136.77c20.17,0,36.59-16.41,36.59-36.59V69.13c0-20.17-16.41-36.59-36.59-36.59H69.13Z"></path><rect class="cls-3" x="3.5" y="3.5" width="216.94" height="216.94" rx="40.09" ry="40.09"></rect><path class="cls-2" d="M180.35,223.94H43.59c-24.03,0-43.59-19.55-43.59-43.59V43.59C0,19.55,19.55,0,43.59,0h136.77c24.03,0,43.59,19.55,43.59,43.59v136.77c0,24.03-19.55,43.59-43.59,43.59ZM43.59,7C23.41,7,7,23.41,7,43.59v136.77c0,20.17,16.41,36.59,36.59,36.59h136.77c20.17,0,36.59-16.41,36.59-36.59V43.59c0-20.17-16.41-36.59-36.59-36.59H43.59Z"></path><line class="cls-2" x1="15.95" y1="209.35" x2="42.13" y2="235.54"></line><rect class="cls-2" x="25.54" y="203.93" width="7" height="37.03" transform="translate(-148.79 85.69) rotate(-45)"></rect><line class="cls-2" x1="209.43" y1="15.87" x2="235.61" y2="42.06"></line><rect class="cls-2" x="219.02" y="10.45" width="7" height="37.03" transform="translate(44.69 165.83) rotate(-45)"></rect><polygon class="cls-2" points="25.66 219.61 186.25 223.55 58.05 244.01 37.46 236.64 25.66 219.61"></polygon><path class="cls-4" d="M166.71,79.97l5.91-9.88c.96-1.56.72-3.59-.59-4.88l-17.64-17.64c-1.3-1.29-3.31-1.53-4.88-.59l-14.49,8.66c-2.26-1.1-4.58-2.07-6.95-2.88l-4.1-16.36c-.43-1.78-2.03-3.04-3.86-3.04h-24.94c-1.83,0-3.43,1.25-3.86,3.04l-4.1,16.36c-2.38.81-4.7,1.77-6.95,2.88l-14.49-8.66c-1.57-.94-3.58-.7-4.88.59l-17.64,17.64c-1.31,1.29-1.55,3.31-.59,4.88l8.66,14.47c-1.09,2.27-2.05,4.6-2.88,6.98l-16.36,4.08c-1.78.45-3.03,2.05-3.04,3.89v24.94c0,1.83,1.25,3.43,3.04,3.86l16.36,4.1c.82,2.38,1.78,4.71,2.88,6.98l-8.66,14.47c-.96,1.56-.72,3.59.59,4.88l17.64,17.64c1.29,1.31,3.31,1.55,4.88.59l14.47-8.66c2.27,1.1,4.6,2.06,6.98,2.88l4.08,16.36c.45,1.78,2.05,3.03,3.89,3.04h24.94c1.84,0,3.44-1.26,3.89-3.04l4.08-16.36c2.38-.82,4.71-1.78,6.98-2.88l14.47,8.66c1.56.96,3.59.72,4.88-.59l17.64-17.64c1.31-1.29,1.55-3.31.59-4.88l-5.91-9.88v-64.01Z"></path><path class="cls-2" d="M95.17,194.07c-3.45,0-6.44-2.34-7.28-5.68l-3.63-14.56c-1.29-.49-2.57-1.01-3.83-1.58l-12.87,7.7c-2.93,1.81-6.71,1.35-9.16-1.13l-17.62-17.62c-2.47-2.43-2.92-6.22-1.09-9.19l7.68-12.84c-.56-1.26-1.09-2.54-1.58-3.83l-14.55-3.65c-3.34-.81-5.69-3.8-5.69-7.26v-24.93c0-3.45,2.34-6.44,5.68-7.28l14.56-3.63c.49-1.29,1.01-2.57,1.58-3.83l-7.71-12.88c-1.81-2.93-1.35-6.71,1.13-9.16l17.62-17.62c2.45-2.43,6.21-2.88,9.16-1.11l12.88,7.7c1.25-.57,2.53-1.1,3.82-1.58l3.65-14.55c.8-3.34,3.79-5.69,7.25-5.69h24.95c3.46,0,6.45,2.35,7.26,5.72l3.64,14.52c1.29.48,2.56,1.01,3.82,1.58l12.89-7.7c2.94-1.77,6.7-1.31,9.13,1.11l17.65,17.65c2.47,2.43,2.92,6.22,1.09,9.19l-5.39,9.01v62.07l5.42,9.05c1.81,2.93,1.35,6.71-1.13,9.16l-17.62,17.62c-2.44,2.47-6.22,2.92-9.19,1.09l-12.83-7.68c-1.26.57-2.54,1.09-3.83,1.58l-3.62,14.54c-.85,3.35-3.84,5.68-7.28,5.69h-24.95ZM80.22,164.79c.52,0,1.04.12,1.53.35,2.13,1.03,4.35,1.95,6.59,2.72,1.12.38,1.97,1.31,2.26,2.46l4.08,16.36c.06.22.26.38.5.38h24.93c.23,0,.44-.16.5-.39l4.07-16.35c.29-1.15,1.14-2.08,2.26-2.46,2.24-.77,4.46-1.68,6.59-2.72,1.06-.51,2.31-.46,3.33.15l14.47,8.66c.21.13.44.1.59-.04l17.65-17.65c.16-.16.19-.39.08-.56l-5.94-9.92c-.33-.54-.5-1.16-.5-1.8v-64.01c0-.63.17-1.25.5-1.8l5.91-9.88c.13-.22.11-.44-.04-.59l-17.65-17.65c-.15-.15-.4-.18-.6-.06l-14.5,8.67c-1.01.61-2.27.66-3.33.14-2.11-1.04-4.32-1.95-6.55-2.71-1.12-.38-1.97-1.31-2.26-2.46l-4.1-16.36c-.06-.24-.25-.39-.46-.39h-24.94c-.22,0-.41.15-.46.36l-4.11,16.39c-.29,1.15-1.14,2.08-2.26,2.46-2.23.76-4.43,1.67-6.55,2.71-1.06.52-2.32.47-3.33-.14l-14.49-8.66c-.2-.12-.45-.09-.62.07l-17.63,17.63c-.16.16-.19.39-.08.56l8.68,14.51c.6,1.01.66,2.26.15,3.32-1.03,2.14-1.95,4.36-2.72,6.61-.39,1.12-1.31,1.97-2.46,2.25l-16.36,4.08c-.22.06-.38.26-.38.5v24.93c0,.22.15.41.36.46l16.39,4.11c1.15.29,2.07,1.13,2.46,2.25.78,2.24,1.69,4.46,2.72,6.61.51,1.06.45,2.31-.15,3.32l-8.66,14.47c-.13.22-.11.44.04.59l17.65,17.65c.16.16.39.19.56.08l14.51-8.68c.55-.33,1.17-.5,1.8-.5Z"></path><path class="cls-2" d="M141.15,89.25c-1.4-2.07-3.03-4.05-4.88-5.89h0c-15.82-15.81-41.44-15.81-57.25-.01-1.84,1.84-3.48,3.82-4.89,5.9-9.3,13.66-9.3,31.77-.01,45.44,1.41,2.08,3.04,4.07,4.89,5.91,15.81,15.82,41.44,15.82,57.26.01,1.85-1.85,3.49-3.84,4.9-5.92,9.29-13.67,9.28-31.77-.02-45.44Z"></path><path class="cls-2" d="M107.64,155.97h0c-11.75,0-22.8-4.58-31.1-12.89-1.97-1.97-3.76-4.13-5.31-6.42-10.04-14.77-10.03-34.61.02-49.37,1.53-2.26,3.32-4.42,5.31-6.41,17.14-17.13,45.04-17.13,62.2,0l1.03,1.07c1.58,1.69,3.01,3.48,4.27,5.34,10.04,14.77,10.05,34.6.02,49.37-1.55,2.29-3.34,4.46-5.32,6.43-8.31,8.31-19.36,12.88-31.11,12.88ZM107.64,75.02c-9.47,0-18.94,3.6-26.15,10.8-1.67,1.67-3.17,3.49-4.46,5.39-8.45,12.41-8.45,29.09-.01,41.51,1.31,1.93,2.81,3.75,4.47,5.41,6.99,6.99,16.27,10.84,26.15,10.84h0c9.88,0,19.17-3.85,26.16-10.83,1.66-1.66,3.17-3.48,4.47-5.41,8.44-12.41,8.43-29.09-.02-41.5h0c-1.28-1.9-2.78-3.71-4.45-5.39l-.53-.53c-7.14-6.86-16.38-10.28-25.62-10.28Z"></path><path class="cls-3" d="M150.71,152.22v-17.53h-76.59c-9.29-13.67-9.29-31.78.01-45.44h76.58v-17.53l48.4,40.25-48.4,40.25Z"></path><path class="cls-2" d="M147.21,159.69v-21.49h-74.95l-1.04-1.53c-10.04-14.77-10.04-34.62.01-49.37l1.04-1.53h74.94v-21.5l57.37,47.71-57.37,47.71ZM76.03,131.19h78.19v13.57l39.43-32.79-39.43-32.79v13.57h-78.18c-7.13,11.7-7.13,26.72,0,38.44Z"></path></svg> 