<?xml version="1.0" encoding="UTF-8"?> <svg xmlns="http://www.w3.org/2000/svg" id="Layer_1" viewBox="0 0 115 40"><defs><style>.cls-1{fill:#fff;}</style></defs><path class="cls-1" d="M75.27.31h-6.41v23.65h6.41V.31ZM66.46,11.01v-1.34h-10.62v4.56h4.15v.31c0,2.29-1.86,4.15-4.15,4.15s-4.15-1.86-4.15-4.15v-4.82c0-2.29,1.86-4.15,4.15-4.15,1.55,0,2.9.85,3.61,2.12h6.59C64.76,3.26,60.68.02,55.84.02c-5.87,0-10.63,4.76-10.63,10.62v2.99c0,5.87,4.76,10.62,10.62,10.62s10.62-4.76,10.62-10.62v-2.62h0ZM43.17,13.22h-5.61c-.52,3.13-3.23,5.52-6.51,5.52s-5.99-2.39-6.51-5.52h-5.61v5.22c0,3.21,2.6,5.81,5.81,5.81h12.62c3.21,0,5.81-2.6,5.81-5.81v-5.22ZM31.05,5.53c3.28,0,5.98,2.39,6.51,5.52h5.61v-5.22C43.17,2.62,40.57.02,37.36.02h-12.62c-3.21,0-5.81,2.6-5.81,5.81v5.22h5.61c.52-3.13,3.23-5.52,6.51-5.52ZM114.82,5.81V.31h-16.98v23.65h16.98v-5.5h-10.57v-3.58h10.57v-5.5h-10.57v-3.58h10.57ZM5.76,23.96h11.48v-5.5H6.67V.31H.26v18.15c0,3.04,2.46,5.5,5.5,5.5ZM85.2.31h-6.41v18.15c0,3.04,2.46,5.5,5.5,5.5h11.48v-5.5h-10.57V.31h0ZM29.15,28.3h-1.73v9.11h5.85v-1.55h-4.12v-7.56h0ZM12.96,30.09c-1.25,0-2.12.76-2.52,2.06h-.12v-4.49h-1.63v9.74h1.63v-4.04c0-1.08.73-1.81,1.84-1.81.96,0,1.35.64,1.35,1.5v4.34h1.63v-4.76c0-1.55-.7-2.55-2.18-2.55h0ZM.26,29.9h2.81v7.51h1.73v-7.51h2.81v-1.59H.26v1.59ZM19.95,30.09c-2.24,0-3.6,1.42-3.6,3.84s1.41,3.66,3.6,3.66c1.91,0,2.81-.88,3.15-2.17l-1.4-.39c-.2.68-.59,1.23-1.73,1.23-1.22,0-1.87-.65-1.99-1.94h5.15c.03-.37.03-.68.03-.96,0-1.96-1.05-3.26-3.21-3.26h0ZM17.99,33.22c.15-1.28.81-1.87,1.91-1.87s1.69.64,1.75,1.87h-3.66ZM37.51,30.09c-2.22,0-3.63,1.38-3.63,3.73s1.34,3.78,3.63,3.78,3.6-1.44,3.6-3.78-1.41-3.73-3.6-3.73ZM37.5,36.19c-1.37,0-1.97-.91-1.97-2.38s.65-2.34,1.97-2.34,1.99.87,1.99,2.34-.64,2.38-1.99,2.38ZM50.06,29.06h1.78v-1.32h-1.78v1.32ZM104.88,30.11c-1.83,0-2.84.87-3.12,2.22l1.55.35c.18-.83.67-1.26,1.5-1.26,1,0,1.39.53,1.39,1.46v.49h-2.13c-1.81,0-2.58.93-2.58,2.2,0,1.4.9,2,2.18,2s2.08-.7,2.45-1.85h.17v1.7h1.55v-4.55c0-1.77-.88-2.75-2.95-2.75ZM106.21,34.72c0,.9-.76,1.56-1.9,1.56-.93,0-1.25-.44-1.25-.96,0-.59.47-.9,1.29-.9h1.86v.29h0ZM99.53,36.07c-.71,0-.97-.37-.97-1.06v-3.42h2.1v-1.32h-2.1v-1.93h-1.64v1.93h-1v1.32h1v3.64c0,1.34.67,2.37,2.24,2.37.71,0,1.08-.09,1.61-.26l-.2-1.46c-.35.1-.67.18-1.04.18h0ZM109.58,37.41h1.64v-7.13h-1.64v7.13ZM91.98,30.09c-2.24,0-3.6,1.42-3.6,3.84s1.41,3.66,3.6,3.66c1.91,0,2.81-.88,3.15-2.17l-1.4-.39c-.2.68-.59,1.23-1.73,1.23-1.22,0-1.87-.65-1.99-1.94h5.15c.03-.37.03-.68.03-.96,0-1.96-1.05-3.26-3.21-3.26ZM90.01,33.22c.15-1.28.81-1.87,1.91-1.87s1.69.64,1.75,1.87h-3.66ZM46.73,36.12c-.77,0-1.6.02-2.4.02-.47,0-.7-.1-.7-.39,0-.15.08-.27.18-.45l.17-.26c.35.09.75.14,1.2.14,1.99,0,3.07-.77,3.07-2.05,0-.94-.79-1.34-1.73-1.52l.02-.14c.61.04,1.06.08,1.45.08h.82v-1.26h-3.54c-1.97,0-3.15.88-3.15,2.49,0,1.08.56,1.85,1.63,2.2l-.55.31c-.5.24-.81.58-.81.96,0,.5.33.83.97.96v.06c-.97.21-1.64.67-1.64,1.29,0,.91.79,1.49,3.5,1.49s3.76-.7,3.76-2.14c0-1.11-.73-1.76-2.24-1.76h0ZM43.58,32.79c0-.74.46-1.24,1.6-1.24s1.67.49,1.67,1.24-.47,1.24-1.66,1.24-1.61-.49-1.61-1.24ZM45.3,38.83c-1.85,0-2.31-.24-2.31-.82,0-.39.39-.79,1.17-.79h2.51c.7,0,.99.29.99.7,0,.61-.44.91-2.36.91ZM109.52,29.06h1.78v-1.32h-1.78v1.32ZM113.08,37.41h1.64v-9.74h-1.64v9.74ZM50.12,37.41h1.64v-7.13h-1.64v7.13ZM56.78,36.16c-1.28,0-1.95-.88-1.95-2.32,0-1.56.73-2.31,1.9-2.31s1.55.61,1.76,1.52l1.54-.29c-.29-1.7-1.22-2.67-3.27-2.67-2.19,0-3.6,1.41-3.6,3.81s1.38,3.7,3.63,3.7c1.96,0,2.97-1,3.26-2.66l-1.51-.37c-.21.87-.61,1.58-1.76,1.58h0ZM67.47,30.09c-2.22,0-3.63,1.38-3.63,3.73s1.34,3.78,3.63,3.78,3.6-1.44,3.6-3.78-1.41-3.73-3.6-3.73ZM67.45,36.19c-1.37,0-1.97-.91-1.97-2.38s.65-2.34,1.97-2.34,1.99.87,1.99,2.34-.64,2.38-1.99,2.38ZM72.95,29.88v.39h-1.18v1.32h1.18v5.81h1.64v-5.81h1.96v-1.32h-1.96v-.37c0-.83.35-1.24,1.1-1.24.29,0,.55.03.87.08l.06-1.17c-.29-.06-.65-.12-1.22-.12-1.66,0-2.45.99-2.45,2.43ZM87.72,31.06c0-1.81-1.08-2.76-3.36-2.76h-3.83v9.11h1.73v-3.42h1.7l2.26,3.42h2.02v-.17l-2.54-3.43c1.28-.38,2.01-1.32,2.01-2.75h0ZM82.26,32.54v-2.78h1.97c1.31,0,1.78.43,1.78,1.35s-.62,1.42-1.81,1.42h-1.95,0Z"></path></svg> 